RobotoSerifTextWide-HairlineWidth730.ufo
<glyph name="period" format="2">
  <advance width="220.4076"/>
  <unicode hex="002E"/>
  <outline>
    <contour>
      <point x="151.2904" y="28.38" type="curve" smooth="yes"/>
      <point x="151.2904" y="52.07"/>
      <point x="133.8552" y="66.622"/>
      <point x="110.24520000000001" y="66.622" type="curve" smooth="yes"/>
      <point x="87.0952" y="66.622"/>
      <point x="69.66" y="52.07"/>
      <point x="69.66" y="28.38" type="curve" smooth="yes"/>
      <point x="69.66" y="4.736"/>
      <point x="87.0952" y="-9.815999999999999"/>
      <point x="110.24520000000001" y="-9.815999999999999" type="curve" smooth="yes"/>
      <point x="133.8552" y="-9.815999999999999"/>
      <point x="151.2904" y="4.736"/>
    </contour>
  </outline>
</glyph>
<glyph name="four" format="2">
  <advance width="650.1600000000001"/>
  <unicode hex="0034"/>
  <outline>
    <contour>
      <point x="54.7612" y="112.0" type="line"/>
      <point x="630.4892" y="112.0" type="line"/>
      <point x="630.4892" y="148.472" type="line"/>
      <point x="75.2792" y="148.472" type="line"/>
      <point x="79.7024" y="124.69" type="line"/>
      <point x="456.0312" y="602.2520000000001" type="line"/>
      <point x="469.6752" y="609.0" type="line"/>
      <point x="415.9252" y="609.0" type="line"/>
      <point x="54.7612" y="151.61" type="line"/>
    </contour>
    <contour>
      <point x="477.7128" y="-77.0" type="line"/>
      <point x="477.7128" y="609.0" type="line"/>
      <point x="436.0752" y="609.0" type="line"/>
      <point x="437.2344" y="594.218" type="line"/>
      <point x="437.2344" y="-77.0" type="line"/>
    </contour>
  </outline>
</glyph>
<glyph name="T" format="2">
  <advance width="730"/>
  <unicode hex="0054"/>
  <anchor x="364.4932" y="741.0" name="top"/>
  <anchor x="364.4932" y="0.0" name="bottom"/>
  <outline>
    <contour>
      <point x="344.7508" y="66.782" type="line" smooth="yes"/>
      <point x="344.7508" y="37.782000000000004"/>
      <point x="302.7708" y="30.782"/>
      <point x="245.95080000000002" y="30.782" type="curve" smooth="yes"/>
      <point x="227.19080000000002" y="30.782" type="line"/>
      <point x="227.19080000000002" y="0.0" type="line"/>
      <point x="502.3292" y="0.0" type="line"/>
      <point x="502.3292" y="30.782" type="line"/>
      <point x="483.5692" y="30.782" type="line" smooth="yes"/>
      <point x="426.7492" y="30.782"/>
      <point x="385.312" y="37.782000000000004"/>
      <point x="385.312" y="66.782" type="curve" smooth="yes"/>
      <point x="385.312" y="678.804" type="line"/>
      <point x="500.63200000000006" y="678.804" type="line" smooth="yes"/>
      <point x="600.432" y="678.804"/>
      <point x="642.4948" y="671.804"/>
      <point x="645.9548" y="635.804" type="curve" smooth="yes"/>
      <point x="656.2520000000001" y="537.804" type="line"/>
      <point x="683.0799999999999" y="537.804" type="line"/>
      <point x="683.0799999999999" y="710.0" type="line"/>
      <point x="46.44" y="710.0" type="line"/>
      <point x="46.44" y="537.804" type="line"/>
      <point x="73.18520000000001" y="537.804" type="line"/>
      <point x="83.5652" y="635.804" type="line" smooth="yes"/>
      <point x="87.02520000000001" y="671.804"/>
      <point x="129.08800000000002" y="678.804"/>
      <point x="228.8052" y="678.804" type="curve" smooth="yes"/>
      <point x="344.7508" y="678.804" type="line"/>
    </contour>
  </outline>
</glyph>
<glyph name="e" format="2">
  <advance width="590.7428"/>
  <unicode hex="0065"/>
  <anchor x="300.7072" y="551.0" name="top"/>
  <anchor x="465.4652" y="1.0" name="right"/>
  <anchor x="317.8876" y="0.0" name="bottom"/>
  <outline>
    <contour>
      <point x="317.5564" y="-10.0" type="curve" smooth="yes"/>
      <point x="425.20000000000005" y="-10.0"/>
      <point x="493.44599999999997" y="34.368"/>
      <point x="537.3432" y="102.23" type="curve"/>
      <point x="512.3127999999999" y="126.104" type="line"/>
      <point x="478.5472" y="72.47200000000001"/>
      <point x="421.31320000000005" y="21.242"/>
      <point x="317.308" y="21.242" type="curve" smooth="yes"/>
      <point x="191.6688" y="21.242"/>
      <point x="94.08680000000001" y="104.782"/>
      <point x="94.08680000000001" y="250.0" type="curve" smooth="yes"/>
      <point x="94.08680000000001" y="396.218"/>
      <point x="183.666" y="486.758"/>
      <point x="306.5444" y="486.758" type="curve" smooth="yes"/>
      <point x="431.5516" y="486.758"/>
      <point x="489.3652" y="413.264"/>
      <point x="495.6164" y="265.0" type="curve"/>
      <point x="513.1344" y="281.276" type="line"/>
      <point x="73.3268" y="281.276" type="line"/>
      <point x="73.3268" y="250.08" type="line"/>
      <point x="538.6376" y="250.08" type="line"/>
      <point x="537.1776" y="423.0"/>
      <point x="459.7568" y="518.0"/>
      <point x="306.5444" y="518.0" type="curve" smooth="yes"/>
      <point x="160.13240000000002" y="518.0"/>
      <point x="50.6516" y="409.0"/>
      <point x="50.6516" y="252.0" type="curve" smooth="yes"/>
      <point x="50.6516" y="92.0"/>
      <point x="168.1352" y="-10.0"/>
    </contour>
  </outline>
</glyph>
<glyph name="h" format="2">
  <advance width="691"/>
  <unicode hex="0068"/>
  <anchor x="359.07640000000004" y="755.0" name="top"/>
  <anchor x="345.0708" y="0.0" name="bottom"/>
  <outline>
    <contour>
      <point x="658.2868" y="0.0" type="line"/>
      <point x="658.2868" y="27.828" type="line"/>
      <point x="656.3696" y="27.828" type="line" smooth="yes"/>
      <point x="600.384" y="27.828"/>
      <point x="560.9467999999999" y="34.827999999999996"/>
      <point x="560.9467999999999" y="63.827999999999996" type="curve" smooth="yes"/>
      <point x="560.9467999999999" y="357.0" type="line" smooth="yes"/>
      <point x="560.9467999999999" y="468.0"/>
      <point x="498.28319999999997" y="518.0"/>
      <point x="390.3516" y="518.0" type="curve" smooth="yes"/>
      <point x="303.8056" y="518.0"/>
      <point x="238.10879999999997" y="482.0"/>
      <point x="175.36880000000002" y="409.0" type="curve"/>
      <point x="175.36880000000002" y="364.85" type="line"/>
      <point x="232.3544" y="438.85"/>
      <point x="297.72" y="483.62"/>
      <point x="383.2596" y="483.62" type="curve" smooth="yes"/>
      <point x="483.918" y="483.62"/>
      <point x="519.9716000000001" y="441.034"/>
      <point x="519.9716000000001" y="346.0" type="curve" smooth="yes"/>
      <point x="519.9716000000001" y="37.827999999999996" type="line" smooth="yes"/>
      <point x="519.9716000000001" y="30.828"/>
      <point x="467.6116" y="27.828"/>
      <point x="435.0116" y="27.828" type="curve" smooth="yes"/>
      <point x="433.0944" y="27.828" type="line"/>
      <point x="433.0944" y="0.0" type="line"/>
    </contour>
    <contour>
      <point x="178.8812" y="735.0" type="line"/>
      <point x="40.1888" y="735.0" type="line"/>
      <point x="40.1888" y="709.034" type="line"/>
      <point x="51.946" y="707.034" type="line" smooth="yes"/>
      <point x="109.60040000000001" y="697.08"/>
      <point x="137.906" y="691.034"/>
      <point x="137.906" y="662.034" type="curve" smooth="yes"/>
      <point x="137.906" y="63.827999999999996" type="line" smooth="yes"/>
      <point x="137.906" y="34.827999999999996"/>
      <point x="98.4688" y="27.828"/>
      <point x="42.6488" y="27.828" type="curve" smooth="yes"/>
      <point x="40.1888" y="27.828" type="line"/>
      <point x="40.1888" y="0.0" type="line"/>
      <point x="265.8412" y="0.0" type="line"/>
      <point x="265.8412" y="27.828" type="line"/>
      <point x="262.38120000000004" y="27.828" type="line" smooth="yes"/>
      <point x="229.6984" y="27.828"/>
      <point x="178.8812" y="30.828"/>
      <point x="178.8812" y="37.827999999999996" type="curve"/>
    </contour>
  </outline>
</glyph>
<glyph name="j" format="2">
  <advance width="285.7208"/>
  <unicode hex="006A"/>
  <anchor x="151.72199999999998" y="551.0" name="top"/>
  <outline>
    <contour>
      <point x="132.3172" y="-73.62" type="line" smooth="yes"/>
      <point x="132.3172" y="-170.712"/>
      <point x="85.8772" y="-202.62"/>
      <point x="10.8832" y="-202.62" type="curve" smooth="yes"/>
      <point x="-32.4648" y="-202.62"/>
      <point x="-64.396" y="-193.804"/>
      <point x="-91.076" y="-184.85" type="curve"/>
      <point x="-91.076" y="-220.184" type="line"/>
      <point x="-68.7732" y="-229.138"/>
      <point x="-38.2128" y="-236.0"/>
      <point x="10.552" y="-236.0" type="curve" smooth="yes"/>
      <point x="89.4024" y="-236.0"/>
      <point x="173.2924" y="-203.54"/>
      <point x="173.2924" y="-73.62" type="curve" smooth="yes"/>
      <point x="173.2924" y="508.0" type="line"/>
      <point x="35.924800000000005" y="508.0" type="line"/>
      <point x="35.924800000000005" y="482.034" type="line"/>
      <point x="47.1024" y="480.034" type="line" smooth="yes"/>
      <point x="104.88560000000001" y="470.17199999999997"/>
      <point x="132.3172" y="464.034"/>
      <point x="132.3172" y="435.034" type="curve" smooth="yes"/>
    </contour>
    <contour>
      <point x="134.34560000000002" y="655.2520000000001" type="curve" smooth="yes"/>
      <point x="159.70080000000002" y="655.2520000000001"/>
      <point x="178.3844" y="669.666"/>
      <point x="178.3844" y="696.218" type="curve" smooth="yes"/>
      <point x="178.3844" y="722.7239999999999"/>
      <point x="159.70080000000002" y="737.138"/>
      <point x="134.34560000000002" y="737.138" type="curve" smooth="yes"/>
      <point x="108.99040000000001" y="737.138"/>
      <point x="90.224" y="722.7239999999999"/>
      <point x="90.224" y="696.218" type="curve" smooth="yes"/>
      <point x="90.224" y="669.666"/>
      <point x="108.99040000000001" y="655.2520000000001"/>
    </contour>
  </outline>
</glyph>
<glyph name="l" format="2">
  <advance width="320"/>
  <unicode hex="006C"/>
  <anchor x="164.93" y="746.0" name="top"/>
  <anchor x="276.4936" y="735.0" name="right"/>
  <anchor x="334.1112" y="391.0" name="mid"/>
  <anchor x="168.39000000000001" y="0.0" name="bottom"/>
  <outline>
    <contour>
      <point x="179.4608" y="735.0" type="line"/>
      <point x="40.6856" y="735.0" type="line"/>
      <point x="40.6856" y="709.034" type="line"/>
      <point x="52.5256" y="707.034" type="line" smooth="yes"/>
      <point x="110.18" y="697.08"/>
      <point x="138.4856" y="691.034"/>
      <point x="138.4856" y="662.034" type="curve" smooth="yes"/>
      <point x="138.4856" y="63.827999999999996" type="line" smooth="yes"/>
      <point x="138.4856" y="34.827999999999996"/>
      <point x="98.9656" y="27.828"/>
      <point x="43.0628" y="27.828" type="curve" smooth="yes"/>
      <point x="40.6028" y="27.828" type="line"/>
      <point x="40.6028" y="0.0" type="line"/>
      <point x="276.71799999999996" y="0.0" type="line"/>
      <point x="276.71799999999996" y="27.828" type="line"/>
      <point x="274.258" y="27.828" type="line" smooth="yes"/>
      <point x="218.98080000000002" y="27.828"/>
      <point x="179.4608" y="34.827999999999996"/>
      <point x="179.4608" y="63.827999999999996" type="curve" smooth="yes"/>
    </contour>
  </outline>
</glyph>
<glyph name="y" format="2">
  <advance width="649"/>
  <unicode hex="0079"/>
  <anchor x="324.01" y="551.0" name="top"/>
  <anchor x="337.09839999999997" y="-211.0" name="bottom"/>
  <outline>
    <contour>
      <point x="313.32280000000003" y="-14.0" type="line"/>
      <point x="327.1084" y="8.0" type="line"/>
      <point x="340" y="19" type="line"/>
      <point x="133.1864" y="468.31" type="line"/>
      <point x="133.1864" y="475.31"/>
      <point x="188.46359999999999" y="477.31"/>
      <point x="234.90359999999998" y="477.31" type="curve" smooth="yes"/>
      <point x="237.4464" y="477.31" type="line"/>
      <point x="237.4464" y="508.0" type="line"/>
      <point x="12.419599999999999" y="508.0" type="line"/>
      <point x="12.419599999999999" y="477.31" type="line"/>
      <point x="13.419599999999999" y="477.31" type="line"/>
      <point x="59.8596" y="477.31"/>
      <point x="89.1652" y="470.31"/>
      <point x="101.29679999999999" y="442.31" type="curve" smooth="yes"/>
    </contour>
    <contour>
      <point x="94.1872" y="-230.09199999999998" type="curve" smooth="yes"/>
      <point x="218.9524" y="-230.09199999999998"/>
      <point x="285" y="-145"/>
      <point x="359" y="17.0" type="curve" smooth="yes"/>
      <point x="549.094" y="432.31" type="line" smooth="yes"/>
      <point x="566.2284" y="469.31"/>
      <point x="600.9112" y="477.31"/>
      <point x="635.9712" y="477.31" type="curve"/>
      <point x="636.9712" y="477.31" type="line"/>
      <point x="636.9712" y="508.0" type="line"/>
      <point x="421.9232" y="508.0" type="line"/>
      <point x="421.9232" y="477.31" type="line"/>
      <point x="425.3832" y="477.31" type="line" smooth="yes"/>
      <point x="471.8232" y="477.31"/>
      <point x="520.7232" y="468.31"/>
      <point x="520.7232" y="455.31" type="curve"/>
      <point x="329" y="31" type="line"/>
      <point x="326" y="28" type="line"/>
      <point x="241" y="-145"/>
      <point x="188.3856" y="-185.39"/>
      <point x="98.144" y="-185.39" type="curve" smooth="yes"/>
      <point x="57.5412" y="-185.39"/>
      <point x="21.0672" y="-167.482"/>
      <point x="15.23" y="-166.436" type="curve"/>
      <point x="15.23" y="-213.046" type="line"/>
      <point x="26.7388" y="-220.184"/>
      <point x="58.458400000000005" y="-230.09199999999998"/>
    </contour>
  </outline>
</glyph>
<glyph name="cent" format="2">
  <advance width="650.1600000000001"/>
  <unicode hex="00A2"/>
  <outline>
    <contour>
      <point x="322.19960000000003" y="623.0" type="line"/>
      <point x="322.19960000000003" y="505.08" type="line"/>
      <point x="322.19960000000003" y="496.896" type="line"/>
      <point x="322.19960000000003" y="7.965999999999999" type="line"/>
      <point x="322.19960000000003" y="1.46" type="line"/>
      <point x="322.19960000000003" y="-126.0" type="line"/>
      <point x="361.53" y="-126.0" type="line"/>
      <point x="361.53" y="-0.9879999999999995" type="line"/>
      <point x="361.53" y="8.196" type="line"/>
      <point x="361.53" y="495.08" type="line"/>
      <point x="361.53" y="502.632" type="line"/>
      <point x="361.53" y="623.0" type="line"/>
    </contour>
    <contour>
      <point x="344.3496" y="19.38" type="curve" smooth="yes"/>
      <point x="207.1648" y="19.38"/>
      <point x="116.4964" y="106.104"/>
      <point x="116.4964" y="252.77" type="curve" smooth="yes"/>
      <point x="116.4964" y="391.218"/>
      <point x="199.4932" y="486.712"/>
      <point x="357.68" y="486.712" type="curve" smooth="yes"/>
      <point x="443.9207365523969" y="486.712"/>
      <point x="512.1412550837632" y="455.155902050648"/>
      <point x="539.8972" y="424.16" type="curve"/>
      <point x="551.4428" y="445.206"/>
      <point x="542.9736" y="450.54"/>
      <point x="515.6248" y="460.942" type="curve"/>
      <point x="515.6248" y="365.252" type="line"/>
      <point x="567.4704" y="365.252" type="line"/>
      <point x="567.4704" y="456.54" type="line"/>
      <point x="543.7631968176768" y="477.231431811896"/>
      <point x="473.46165614023676" y="518.0"/>
      <point x="357.68" y="518.0" type="curve" smooth="yes"/>
      <point x="177.0424" y="518.0"/>
      <point x="72.144" y="405.908"/>
      <point x="72.144" y="252.77" type="curve" smooth="yes"/>
      <point x="72.144" y="91.322"/>
      <point x="188.88240000000002" y="-11.908"/>
      <point x="344.6808" y="-11.908" type="curve" smooth="yes"/>
      <point x="471.1608" y="-11.908"/>
      <point x="539.3240000000001" y="51.678"/>
      <point x="576.9332" y="123.448" type="curve"/>
      <point x="551.36" y="147.23" type="line"/>
      <point x="524.5908000000001" y="87.87400000000001"/>
      <point x="461.4432" y="19.38"/>
    </contour>
  </outline>
</glyph>
<glyph name="ordfeminine" format="2">
  <advance width="523.9936"/>
  <unicode hex="00AA"/>
  <outline>
    <contour>
      <point x="367.3084" y="554.3679999999999" type="line"/>
      <point x="171.61919999999998" y="538.322"/>
      <point x="68.02799999999999" y="505.13800000000003"/>
      <point x="68.02799999999999" y="417.18399999999997" type="curve" smooth="yes"/>
      <point x="68.02799999999999" y="349.046"/>
      <point x="127.39080000000001" y="310.0"/>
      <point x="213.3508" y="310.0" type="curve" smooth="yes"/>
      <point x="293.55640000000005" y="310.0"/>
      <point x="346.83360000000005" y="357.632"/>
      <point x="368.6396" y="405.0" type="curve"/>
      <point x="400.66" y="442.276"/>
      <point x="365.75919999999996" y="441.908"/>
      <point x="363.71320000000003" y="441.908" type="curve"/>
      <point x="334.07640000000004" y="382.598"/>
      <point x="291.0596" y="338.058"/>
      <point x="214.244" y="338.058" type="curve" smooth="yes"/>
      <point x="148.5168" y="338.058"/>
      <point x="109.1688" y="369.69"/>
      <point x="109.1688" y="417.23" type="curve" smooth="yes"/>
      <point x="109.1688" y="478.0"/>
      <point x="183.862" y="517.6320000000001"/>
      <point x="365.7656" y="526.586" type="curve"/>
    </contour>
    <contour>
      <point x="353.0912" y="320.0" type="line"/>
      <point x="464.80280000000005" y="320.0" type="line"/>
      <point x="464.80280000000005" y="347.644" type="line"/>
      <point x="464.80280000000005" y="347.644" type="line"/>
      <point x="424.2828" y="347.644"/>
      <point x="391.68280000000004" y="351.644"/>
      <point x="391.68280000000004" y="376.644" type="curve" smooth="yes"/>
      <point x="391.68280000000004" y="599.77" type="line" smooth="yes"/>
      <point x="391.68280000000004" y="691.862"/>
      <point x="322.5132" y="720.0"/>
      <point x="243.384" y="720.0" type="curve" smooth="yes"/>
      <point x="173.67159999999998" y="720.0"/>
      <point x="119.2224" y="696.0"/>
      <point x="93.5424" y="668.046" type="curve"/>
      <point x="93.5424" y="611.586" type="line"/>
      <point x="134.9316" y="611.586" type="line"/>
      <point x="134.9316" y="686.126" type="line"/>
      <point x="127.042" y="683.9879999999999"/>
      <point x="107.1928" y="655.678"/>
      <point x="109.40440000000001" y="632.356" type="curve"/>
      <point x="130.1644" y="668.08"/>
      <point x="176.5216" y="692.034"/>
      <point x="243.96359999999999" y="692.034" type="curve" smooth="yes"/>
      <point x="309.5316" y="692.034"/>
      <point x="349.9624" y="671.804"/>
      <point x="349.9624" y="595.678" type="curve" smooth="yes"/>
      <point x="349.9624" y="392.50600000000003" type="line"/>
      <point x="353.0912" y="390.50600000000003" type="line"/>
    </contour>
  </outline>
</glyph>
<glyph name="Uogonek" format="2">
  <advance width="907.4732"/>
  <unicode hex="0172"/>
  <outline>
    <contour>
      <point x="529.1924" y="-233.138" type="curve" smooth="yes"/>
      <point x="578.0160000000001" y="-233.138"/>
      <point x="617.2812" y="-211.276"/>
      <point x="648.5868" y="-180.46" type="curve"/>
      <point x="627.4431999999999" y="-159.816" type="line"/>
      <point x="601.3124" y="-182.31"/>
      <point x="575.1356" y="-202.126"/>
      <point x="534.2908" y="-202.126" type="curve" smooth="yes"/>
      <point x="494.6116" y="-202.126"/>
      <point x="461.3124" y="-180.448"/>
      <point x="461.3124" y="-139.816" type="curve" smooth="yes"/>
      <point x="461.3124" y="-71.356"/>
      <point x="510.42560000000003" y="-41.872"/>
      <point x="639.6032" y="41.827999999999996" type="curve" smooth="yes"/>
      <point x="703.4196" y="85.87400000000001"/>
      <point x="743.6848" y="159.69"/>
      <point x="743.6848" y="271.0" type="curve" smooth="yes"/>
      <point x="743.6848" y="633.218" type="line" smooth="yes"/>
      <point x="743.6848" y="667.218"/>
      <point x="785.7475999999999" y="679.218"/>
      <point x="842.4848" y="679.218" type="curve" smooth="yes"/>
      <point x="855.4076" y="679.218" type="line"/>
      <point x="855.4076" y="710.0" type="line"/>
      <point x="597.6279999999999" y="710.0" type="line"/>
      <point x="597.6279999999999" y="679.218" type="line"/>
      <point x="607.9252" y="679.218" type="line" smooth="yes"/>
      <point x="651.9052" y="679.218"/>
      <point x="708.7252" y="671.218"/>
      <point x="708.7252" y="657.218" type="curve" smooth="yes"/>
      <point x="708.7252" y="271.0" type="line" smooth="yes"/>
      <point x="708.7252" y="90.012"/>
      <point x="599.3492" y="25.61"/>
      <point x="457.3732" y="25.61" type="curve" smooth="yes"/>
      <point x="316.894" y="25.61"/>
      <point x="204.2668" y="87.15"/>
      <point x="204.2668" y="271.0" type="curve" smooth="yes"/>
      <point x="204.2668" y="669.218" type="line" smooth="yes"/>
      <point x="204.2668" y="676.218"/>
      <point x="261.08680000000004" y="679.218"/>
      <point x="305.52680000000004" y="679.218" type="curve" smooth="yes"/>
      <point x="315.90680000000003" y="679.218" type="line"/>
      <point x="315.90680000000003" y="710.0" type="line"/>
      <point x="52.6084" y="710.0" type="line"/>
      <point x="52.6084" y="679.218" type="line"/>
      <point x="65.44839999999999" y="679.218" type="line" smooth="yes"/>
      <point x="122.26840000000001" y="679.218"/>
      <point x="163.7056" y="672.218"/>
      <point x="163.7056" y="643.218" type="curve" smooth="yes"/>
      <point x="163.7056" y="271.0" type="line" smooth="yes"/>
      <point x="163.7056" y="68.138"/>
      <point x="285.8148" y="-10.0"/>
      <point x="453.1984" y="-10.0" type="curve" smooth="yes"/>
      <point x="494.0192" y="-10.0"/>
      <point x="533.4628" y="-4.862"/>
      <point x="568.8604" y="7.46" type="curve"/>
      <point x="579.648" y="21.15" type="line"/>
      <point x="497.0892" y="-23.046"/>
      <point x="420.42" y="-71.276"/>
      <point x="420.42" y="-140.23" type="curve" smooth="yes"/>
      <point x="420.42" y="-198.184"/>
      <point x="470.1544" y="-233.138"/>
    </contour>
  </outline>
</glyph>
<glyph name="Uhorn" format="2">
  <advance width="950.1092"/>
  <unicode hex="01AF"/>
  <anchor x="473.8692" y="663.0" name="top"/>
  <outline>
    <contour>
      <point x="597.6279999999999" y="710.0" type="line"/>
      <point x="597.6279999999999" y="679.218" type="line"/>
      <point x="607.9252" y="679.218" type="line" smooth="yes"/>
      <point x="651.9052" y="679.218"/>
      <point x="709.268" y="671.218"/>
      <point x="709.268" y="657.218" type="curve" smooth="yes"/>
      <point x="709.268" y="271.0" type="line" smooth="yes"/>
      <point x="709.268" y="90.012"/>
      <point x="599.3492" y="25.61"/>
      <point x="457.3732" y="25.61" type="curve" smooth="yes"/>
      <point x="316.894" y="25.61"/>
      <point x="204.2668" y="87.15"/>
      <point x="204.2668" y="271.0" type="curve" smooth="yes"/>
      <point x="204.2668" y="669.218" type="line" smooth="yes"/>
      <point x="204.2668" y="676.218"/>
      <point x="261.08680000000004" y="679.218"/>
      <point x="305.52680000000004" y="679.218" type="curve" smooth="yes"/>
      <point x="315.90680000000003" y="679.218" type="line"/>
      <point x="315.90680000000003" y="710.0" type="line"/>
      <point x="52.6084" y="710.0" type="line"/>
      <point x="52.6084" y="679.218" type="line"/>
      <point x="65.44839999999999" y="679.218" type="line" smooth="yes"/>
      <point x="122.26840000000001" y="679.218"/>
      <point x="163.7056" y="672.218"/>
      <point x="163.7056" y="643.218" type="curve" smooth="yes"/>
      <point x="163.7056" y="271.0" type="line" smooth="yes"/>
      <point x="163.7056" y="68.138"/>
      <point x="285.8148" y="-10.0"/>
      <point x="453.1984" y="-10.0" type="curve" smooth="yes"/>
      <point x="615.3244000000001" y="-10.0"/>
      <point x="743.6848" y="69.04599999999999"/>
      <point x="743.6848" y="271.0" type="curve" smooth="yes"/>
      <point x="743.6848" y="642.942" type="line" smooth="yes"/>
      <point x="743.6848" y="676.574"/>
      <point x="774.4044000000001" y="670.494"/>
      <point x="869.7924" y="694.62" type="curve" smooth="yes"/>
      <point x="964.6356000000001" y="720.16"/>
      <point x="998.9632" y="782.884"/>
      <point x="1002.7543999999999" y="877.954" type="curve"/>
      <point x="961.3652" y="877.954" type="line"/>
      <point x="951.6172" y="738.552"/>
      <point x="883.8263999999999" y="710.0"/>
      <point x="704.6616" y="710.0" type="curve" smooth="yes"/>
    </contour>
  </outline>
</glyph>
<glyph name="quoteright" format="2">
  <advance width="219.1832"/>
  <unicode hex="2019"/>
  <outline>
    <contour>
      <point x="72.5992" y="519.446" type="line"/>
      <point x="133.6920738284868" y="561.5695575542445"/>
      <point x="161.44600000000003" y="608.516"/>
      <point x="161.44600000000003" y="666.62" type="curve" smooth="yes"/>
      <point x="161.44600000000003" y="699.586"/>
      <point x="143.30965714285716" y="715.0"/>
      <point x="119.31800000000001" y="715.0" type="curve" smooth="yes"/>
      <point x="98.9791135135135" y="715.0"/>
      <point x="83.6528" y="700.494"/>
      <point x="83.6528" y="680.7579999999999" type="curve" smooth="yes"/>
      <point x="83.6528" y="659.976"/>
      <point x="96.754" y="645.608"/>
      <point x="118.6556" y="645.608" type="curve" smooth="yes"/>
      <point x="135.70080000000002" y="645.608"/>
      <point x="147.7892" y="651.332"/>
      <point x="150.58679999999998" y="665.734" type="curve"/>
      <point x="146.4948" y="663.332"/>
      <point x="137.4984" y="660.022"/>
      <point x="138.078" y="658.838" type="curve"/>
      <point x="138.3264" y="620.194"/>
      <point x="105.98694621930296" y="569.4179844605342"/>
      <point x="48.34440000000001" y="535.228" type="curve"/>
    </contour>
  </outline>
</glyph>
<glyph name="servicemark" format="2">
  <advance width="944.3435999999999"/>
  <unicode hex="2120"/>
  <outline>
    <contour>
      <point x="433.3492" y="395.0" type="line"/>
      <point x="555.796" y="395.0" type="line"/>
      <point x="555.796" y="419.50600000000003" type="line"/>
      <point x="551.1704" y="419.50600000000003" type="line" smooth="yes"/>
      <point x="539.2475999999999" y="419.50600000000003"/>
      <point x="515.1104" y="422.50600000000003"/>
      <point x="515.1104" y="424.50600000000003" type="curve" smooth="yes"/>
      <point x="515.1104" y="702.0" type="line"/>
      <point x="511.9816" y="701.0" type="line"/>
      <point x="634.9952000000001" y="394.0" type="line"/>
      <point x="662.5684" y="394.0" type="line"/>
      <point x="789.2076" y="701.0" type="line"/>
      <point x="786.1616" y="701.0" type="line"/>
      <point x="786.1616" y="424.50600000000003" type="line" smooth="yes"/>
      <point x="786.1616" y="422.50600000000003"/>
      <point x="764.8588" y="419.50600000000003"/>
      <point x="751.1016" y="419.50600000000003" type="curve" smooth="yes"/>
      <point x="744.9332" y="419.50600000000003" type="line"/>
      <point x="744.9332" y="395.0" type="line"/>
      <point x="874.7664" y="395.0" type="line"/>
      <point x="874.7664" y="419.50600000000003" type="line"/>
      <point x="866.8464" y="419.50600000000003" type="line" smooth="yes"/>
      <point x="841.1664000000001" y="419.50600000000003"/>
      <point x="823.8664" y="423.50600000000003"/>
      <point x="823.8664" y="436.50600000000003" type="curve" smooth="yes"/>
      <point x="823.8664" y="669.494" type="line" smooth="yes"/>
      <point x="823.8664" y="683.494"/>
      <point x="841.1664000000001" y="685.494"/>
      <point x="866.8464" y="685.494" type="curve" smooth="yes"/>
      <point x="874.7664" y="685.494" type="line"/>
      <point x="874.7664" y="710.0" type="line"/>
      <point x="759.0152" y="710.0" type="line"/>
      <point x="648.676" y="435.0" type="line"/>
      <point x="654.2712" y="434.0" type="line"/>
      <point x="551.4775999999999" y="710.0" type="line"/>
      <point x="433.3492" y="710.0" type="line"/>
      <point x="433.3492" y="685.494" type="line"/>
      <point x="440.2692" y="685.494" type="line" smooth="yes"/>
      <point x="464.4892" y="685.494"/>
      <point x="484.2492" y="683.494"/>
      <point x="484.2492" y="669.494" type="curve" smooth="yes"/>
      <point x="484.2492" y="436.50600000000003" type="line" smooth="yes"/>
      <point x="484.2492" y="423.50600000000003"/>
      <point x="464.4892" y="419.50600000000003"/>
      <point x="440.2692" y="419.50600000000003" type="curve"/>
      <point x="433.3492" y="419.50600000000003" type="line"/>
    </contour>
    <contour>
      <point x="243.46679999999998" y="413.644" type="curve" smooth="yes"/>
      <point x="181.23000000000002" y="413.644"/>
      <point x="136.0844" y="449.46"/>
      <point x="116.1588" y="496.092" type="curve"/>
      <point x="79.8808" y="496.092" type="line"/>
      <point x="79.8808" y="391.0" type="line"/>
      <point x="106.5304" y="391.0" type="line"/>
      <point x="114.36760000000001" y="473.0" type="line"/>
      <point x="98.94800000000001" y="479.86199999999997"/>
      <point x="115.3548" y="452.644"/>
      <point x="89.3132" y="486.54" type="curve"/>
      <point x="120.2812" y="416.86199999999997"/>
      <point x="178.2668" y="386.0"/>
      <point x="243.1356" y="386.0" type="curve" smooth="yes"/>
      <point x="302.422" y="386.0"/>
      <point x="363.0332" y="415.23"/>
      <point x="363.0332" y="482.23" type="curve" smooth="yes"/>
      <point x="363.0332" y="528.644"/>
      <point x="318.8048" y="556.552"/>
      <point x="245.43" y="573.598" type="curve" smooth="yes"/>
      <point x="185.4876" y="586.552"/>
      <point x="133.962" y="597.414"/>
      <point x="133.962" y="644.77" type="curve" smooth="yes"/>
      <point x="133.962" y="673.59669767444"/>
      <point x="162.5988" y="695.264"/>
      <point x="206.8272" y="695.264" type="curve" smooth="yes"/>
      <point x="260.2636" y="695.264"/>
      <point x="289.0724" y="667.54"/>
      <point x="308.62080000000003" y="626.908" type="curve"/>
      <point x="342.356" y="626.908" type="line"/>
      <point x="342.356" y="716.0" type="line"/>
      <point x="318.2492" y="716.0" type="line"/>
      <point x="310.3292" y="645.0" type="line"/>
      <point x="320.7092" y="638.0"/>
      <point x="321.37800000000004" y="638.322"/>
      <point x="330.75800000000004" y="639.322" type="curve"/>
      <point x="306.538" y="695.414"/>
      <point x="271.3888" y="720.0"/>
      <point x="208.57240000000002" y="720.0" type="curve" smooth="yes"/>
      <point x="144.998" y="720.0"/>
      <point x="99.1376" y="688.954"/>
      <point x="99.1376" y="638.7239999999999" type="curve" smooth="yes"/>
      <point x="99.1376" y="577.494"/>
      <point x="158.0864" y="558.448"/>
      <point x="216.9524" y="544.402" type="curve" smooth="yes"/>
      <point x="296.90319999999997" y="526.494"/>
      <point x="327.3744" y="512.54"/>
      <point x="327.3744" y="473.908" type="curve" smooth="yes"/>
      <point x="327.3744" y="435.322"/>
      <point x="287.364" y="413.644"/>
    </contour>
  </outline>
</glyph>
<glyph name="summation" format="2">
  <advance width="629.9316"/>
  <unicode hex="2211"/>
  <outline>
    <contour>
      <point x="45.8492" y="678.068" type="line"/>
      <point x="70.0564" y="687.184" type="line"/>
      <point x="395.544" y="276.69" type="line"/>
      <point x="395.544" y="251.77" type="line"/>
      <point x="68.50720000000001" y="-203.632" type="line"/>
      <point x="55.388400000000004" y="-191.068" type="line"/>
      <point x="418.62239999999997" y="-191.068" type="line" smooth="yes"/>
      <point x="518.4224" y="-191.068"/>
      <point x="560.4024000000001" y="-184.068"/>
      <point x="563.8624" y="-148.068" type="curve" smooth="yes"/>
      <point x="574.2424000000001" y="-28.528" type="line"/>
      <point x="601.9048" y="-28.528" type="line"/>
      <point x="601.9048" y="-223.0" type="line"/>
      <point x="28.6432" y="-223.0" type="line"/>
      <point x="28.6432" y="-188.93" type="line"/>
      <point x="366.1732" y="278.23" type="line"/>
      <point x="361.71320000000003" y="256.62" type="line"/>
      <point x="28.6432" y="675.93" type="line"/>
      <point x="28.6432" y="710.0" type="line"/>
      <point x="575.2248" y="710.0" type="line"/>
      <point x="575.2248" y="540.068" type="line"/>
      <point x="548.4796" y="540.068" type="line"/>
      <point x="538.0996" y="635.068" type="line" smooth="yes"/>
      <point x="534.6396" y="671.068"/>
      <point x="492.57680000000005" y="678.068"/>
      <point x="392.77680000000004" y="678.068" type="curve" smooth="yes"/>
    </contour>
  </outline>
</glyph>
<glyph name="baht" format="2">
  <advance width="651.7856"/>
  <outline>
    <contour>
      <point x="311.6016" y="790.0" type="line"/>
      <point x="311.6016" y="697.942" type="line"/>
      <point x="311.1876" y="689.574" type="line"/>
      <point x="311.1876" y="22.15" type="line"/>
      <point x="311.6016" y="12.15" type="line"/>
      <point x="311.6016" y="-119.54" type="line"/>
      <point x="348.3064" y="-119.54" type="line"/>
      <point x="348.3064" y="12.242" type="line"/>
      <point x="348.72040000000004" y="22.334" type="line"/>
      <point x="348.72040000000004" y="689.666" type="line"/>
      <point x="348.3064" y="697.804" type="line"/>
      <point x="348.3064" y="790.0" type="line"/>
    </contour>
    <contour>
      <point x="350.0324" y="709.54" type="curve"/>
      <point x="32.203599999999994" y="709.54" type="line"/>
      <point x="32.203599999999994" y="678.7579999999999" type="line"/>
      <point x="45.0436" y="678.7579999999999" type="line" smooth="yes"/>
      <point x="92.146" y="678.7579999999999"/>
      <point x="127.16" y="671.7579999999999"/>
      <point x="127.16" y="642.7579999999999" type="curve" smooth="yes"/>
      <point x="127.16" y="67.242" type="line" smooth="yes"/>
      <point x="127.16" y="38.242000000000004"/>
      <point x="92.146" y="31.242"/>
      <point x="45.0436" y="31.242" type="curve" smooth="yes"/>
      <point x="32.203599999999994" y="31.242" type="line"/>
      <point x="32.203599999999994" y="0.4600000000000001" type="line"/>
      <point x="356.4556" y="0.4600000000000001" type="line" smooth="yes"/>
      <point x="509.18399999999997" y="0.4600000000000001"/>
      <point x="594.3224" y="73.644"/>
      <point x="594.3224" y="191.92" type="curve" smooth="yes"/>
      <point x="594.3224" y="309.414"/>
      <point x="497.8104" y="384.092"/>
      <point x="288.0024" y="384.092" type="curve"/>
      <point x="282.4964" y="363.0" type="line"/>
      <point x="481.1728" y="363.0"/>
      <point x="563.6792" y="434.77"/>
      <point x="563.6792" y="541.448" type="curve" smooth="yes"/>
      <point x="563.6792" y="644.54"/>
      <point x="489.9208" y="709.54"/>
    </contour>
    <contour>
      <point x="321.5132" y="386.598" type="curve"/>
      <point x="168.46640000000002" y="386.598" type="line"/>
      <point x="168.46640000000002" y="678.3439999999999" type="line"/>
      <point x="349.53560000000004" y="678.3439999999999" type="line"/>
      <point x="466.9732" y="678.3439999999999"/>
      <point x="518.6644000000001" y="628.804"/>
      <point x="518.6644000000001" y="540.264" type="curve" smooth="yes"/>
      <point x="518.6644000000001" y="450.368"/>
      <point x="460.6916" y="386.598"/>
    </contour>
    <contour>
      <point x="325.5592" y="357.402" type="line"/>
      <point x="476.4948" y="357.402"/>
      <point x="546.8476" y="289.81600000000003"/>
      <point x="546.8476" y="192.966" type="curve" smooth="yes"/>
      <point x="546.8476" y="89.38"/>
      <point x="485.1536" y="31.61"/>
      <point x="356.12440000000004" y="31.61" type="curve" smooth="yes"/>
      <point x="168.46640000000002" y="31.61" type="line"/>
      <point x="168.46640000000002" y="357.402" type="line"/>
    </contour>
  </outline>
</glyph>
<glyph name="baht.proportional" format="2">
  <advance width="698.1379999999999"/>
  <outline>
    <contour>
      <point x="344.0184" y="790.0" type="line"/>
      <point x="344.0184" y="697.942" type="line"/>
      <point x="343.6044" y="689.574" type="line"/>
      <point x="343.6044" y="22.15" type="line"/>
      <point x="344.0184" y="12.15" type="line"/>
      <point x="344.0184" y="-120.0" type="line"/>
      <point x="380.6404" y="-120.0" type="line"/>
      <point x="380.6404" y="12.242" type="line"/>
      <point x="381.0544" y="22.334" type="line"/>
      <point x="381.0544" y="689.666" type="line"/>
      <point x="380.6404" y="697.804" type="line"/>
      <point x="380.6404" y="790.0" type="line"/>
    </contour>
    <contour>
      <point x="387.6608" y="709.54" type="curve"/>
      <point x="37.302" y="709.54" type="line"/>
      <point x="37.302" y="678.7579999999999" type="line"/>
      <point x="50.142" y="678.7579999999999" type="line" smooth="yes"/>
      <point x="107.04480000000001" y="678.7579999999999"/>
      <point x="148.6476" y="671.7579999999999"/>
      <point x="148.6476" y="642.7579999999999" type="curve" smooth="yes"/>
      <point x="148.6476" y="67.242" type="line" smooth="yes"/>
      <point x="148.6476" y="38.242000000000004"/>
      <point x="107.04480000000001" y="31.242"/>
      <point x="50.142" y="31.242" type="curve" smooth="yes"/>
      <point x="37.302" y="31.242" type="line"/>
      <point x="37.302" y="0.4600000000000001" type="line"/>
      <point x="394.16679999999997" y="0.4600000000000001" type="line" smooth="yes"/>
      <point x="546.3616000000001" y="0.4600000000000001"/>
      <point x="637.5856" y="73.644"/>
      <point x="637.5856" y="191.92" type="curve" smooth="yes"/>
      <point x="637.5856" y="309.408888888848"/>
      <point x="534.4452" y="384.092"/>
      <point x="325.7136" y="384.092" type="curve"/>
      <point x="320.7504" y="363.0" type="line"/>
      <point x="517.8076" y="363.0"/>
      <point x="606.3996" y="434.769465116324"/>
      <point x="606.3996" y="541.448" type="curve" smooth="yes"/>
      <point x="606.3996" y="644.54"/>
      <point x="527.1812" y="709.54"/>
    </contour>
    <contour>
      <point x="359.6384" y="386.552" type="curve"/>
      <point x="189.7056" y="386.552" type="line"/>
      <point x="189.7056" y="678.436" type="line"/>
      <point x="387.2468" y="678.436" type="line"/>
      <point x="504.2336" y="678.436"/>
      <point x="561.716" y="628.85"/>
      <point x="561.716" y="540.264" type="curve" smooth="yes"/>
      <point x="561.716" y="450.29342424238797"/>
      <point x="498.1176" y="386.552"/>
    </contour>
    <contour>
      <point x="364.1444" y="357.448" type="line"/>
      <point x="513.2124" y="357.448"/>
      <point x="590.442" y="289.881333333376"/>
      <point x="590.442" y="192.966" type="curve" smooth="yes"/>
      <point x="590.442" y="89.334"/>
      <point x="522.4968" y="31.518"/>
      <point x="393.8356" y="31.518" type="curve" smooth="yes"/>
      <point x="189.7056" y="31.518" type="line"/>
      <point x="189.7056" y="357.448" type="line"/>
    </contour>
  </outline>
</glyph>
<glyph name="circumflex_grave" format="2">
  <advance width="591.7972"/>
  <anchor x="281.85159999999996" y="564.0" name="_top"/>
  <outline>
    <contour>
      <point x="442.156" y="823.862" type="curve" smooth="yes"/>
      <point x="507.4692" y="707.046" type="line"/>
      <point x="507.4692" y="692.77" type="line"/>
      <point x="492.908" y="692.77" type="line"/>
      <point x="395.154" y="798.85" type="line" smooth="yes"/>
      <point x="379.35080000000005" y="815.9879999999999"/>
      <point x="365.428" y="831.264"/>
      <point x="365.428" y="846.402" type="curve" smooth="yes"/>
      <point x="365.428" y="860.77"/>
      <point x="375.98" y="871.092"/>
      <point x="393.7464" y="871.092" type="curve" smooth="yes"/>
      <point x="415.304" y="871.092"/>
      <point x="425.7732" y="854.092"/>
    </contour>
    <component base="circumflex" xOffset="40.903200000000005"/>
  </outline>
</glyph>
<glyph name="circumflex_grave.uc" format="2">
  <advance width="591.88"/>
  <anchor x="282.9344" y="696.0" name="_top"/>
  <outline>
    <contour>
      <point x="444.71160000000003" y="925.564" type="line" smooth="yes"/>
      <point x="420.0776" y="960.15"/>
      <point x="412.0224" y="975.104"/>
      <point x="392.0904" y="975.104" type="curve" smooth="yes"/>
      <point x="376.94960000000003" y="975.104"/>
      <point x="366.3976" y="965.69"/>
      <point x="366.3976" y="952.23" type="curve" smooth="yes"/>
      <point x="366.3976" y="936.77"/>
      <point x="379.1612" y="924.31"/>
      <point x="401.7252" y="903.448" type="curve" smooth="yes"/>
      <point x="481.02" y="834.828" type="line"/>
      <point x="495.9952" y="834.828" type="line"/>
      <point x="495.9952" y="849.104" type="line"/>
    </contour>
    <component base="circumflex.uc" xOffset="39.40360000000001"/>
  </outline>
</glyph>
<glyph name="circumflex_tilde" format="2">
  <advance width="580.5"/>
  <anchor x="278.0604" y="551.0" name="_top"/>
  <outline>
    <contour>
      <point x="346.3956" y="778.448" type="curve" smooth="yes"/>
      <point x="397.762" y="778.448"/>
      <point x="419.17318400237923" y="814.702455419208"/>
      <point x="437.3776" y="877.046" type="curve"/>
      <point x="407.3904" y="886.414" type="line"/>
      <point x="392.9248" y="842.69"/>
      <point x="380.7932" y="812.92"/>
      <point x="353.0672" y="812.92" type="curve" smooth="yes"/>
      <point x="307.71000000000004" y="812.92"/>
      <point x="291.3972" y="889.138"/>
      <point x="221.9856" y="889.138" type="curve" smooth="yes"/>
      <point x="175.99" y="889.138"/>
      <point x="147.8690756302264" y="854.91901213826"/>
      <point x="135.46359999999999" y="788.586" type="curve"/>
      <point x="165.9108" y="778.31" type="line"/>
      <point x="176.3736" y="827.896"/>
      <point x="186.33960000000002" y="854.712"/>
      <point x="217.31400000000002" y="854.712" type="curve" smooth="yes"/>
      <point x="262.2508" y="854.712"/>
      <point x="277.64639999999997" y="778.448"/>
    </contour>
    <contour>
      <point x="327.9604" y="728.678" type="line"/>
      <point x="441.984" y="605.804" type="line"/>
      <point x="441.984" y="595.804" type="line"/>
      <point x="416.1624" y="595.804" type="line"/>
      <point x="260.2636" y="713.838" type="line"/>
      <point x="312.73040000000003" y="713.838" type="line"/>
      <point x="158.9972" y="595.804" type="line"/>
      <point x="140.14159999999998" y="595.804" type="line"/>
      <point x="140.14159999999998" y="605.804" type="line"/>
      <point x="251.45680000000002" y="728.678" type="line"/>
    </contour>
  </outline>
</glyph>
<glyph name="colonsign" format="2">
  <advance width="650.1600000000001"/>
  <outline>
    <contour>
      <point x="375.06280000000004" y="700.0" type="curve" smooth="yes"/>
      <point x="181.91" y="700.0"/>
      <point x="40.59" y="569.402"/>
      <point x="40.59" y="355.0" type="curve" smooth="yes"/>
      <point x="40.59" y="150.0"/>
      <point x="173.16199999999998" y="10.0"/>
      <point x="359.8088" y="10.0" type="curve" smooth="yes"/>
      <point x="507.8832" y="10.0"/>
      <point x="596.0548" y="98.368"/>
      <point x="629.6548" y="220.058" type="curve"/>
      <point x="598.2012" y="236.61" type="line"/>
      <point x="571.4384" y="129.966"/>
      <point x="496.8648" y="41.196"/>
      <point x="359.14639999999997" y="41.196" type="curve" smooth="yes"/>
      <point x="193.1528" y="41.196"/>
      <point x="85.1908" y="165.552"/>
      <point x="85.1908" y="355.0" type="curve" smooth="yes"/>
      <point x="85.1908" y="556.712"/>
      <point x="205.8576" y="668.85"/>
      <point x="375.06280000000004" y="668.85" type="curve" smooth="yes"/>
      <point x="495.196" y="668.85"/>
      <point x="568.0740000000001" y="626.528"/>
      <point x="597.4624000000001" y="585.62" type="curve"/>
      <point x="610.7991999999999" y="573.184"/>
      <point x="615.1940000000001" y="617.138"/>
      <point x="569.7236" y="629.494" type="curve"/>
      <point x="569.7236" y="528.666" type="line"/>
      <point x="620.9896" y="528.666" type="line"/>
      <point x="620.9896" y="626.0" type="line"/>
      <point x="580.6416" y="658.6320000000001"/>
      <point x="502.5952" y="700.0"/>
    </contour>
    <contour>
      <point x="288.68240000000003" y="790.0" type="line"/>
      <point x="142.0284" y="-120.0" type="line"/>
      <point x="181.47840000000002" y="-120.0" type="line"/>
      <point x="328.13239999999996" y="790.0" type="line"/>
    </contour>
    <contour>
      <point x="457.97040000000004" y="790.0" type="line"/>
      <point x="310.7736" y="-120.0" type="line"/>
      <point x="350.7664" y="-120.0" type="line"/>
      <point x="497.42040000000003" y="790.0" type="line"/>
    </contour>
  </outline>
</glyph>
<glyph name="commaaccent" format="2">
  <advance width="581.0428"/>
  <anchor x="288.68240000000003" y="33.0" name="_bottom"/>
  <outline>
    <contour>
      <point x="261.3464" y="-267.794" type="line"/>
      <point x="318.2492" y="-227.564"/>
      <point x="346.058" y="-181.74800000000002"/>
      <point x="346.058" y="-132.334" type="curve" smooth="yes"/>
      <point x="346.058" y="-99.644"/>
      <point x="327.4572" y="-84.276"/>
      <point x="303.4332" y="-84.276" type="curve" smooth="yes"/>
      <point x="282.62080000000003" y="-84.276"/>
      <point x="266.3972" y="-98.598"/>
      <point x="266.3972" y="-118.196" type="curve" smooth="yes"/>
      <point x="266.3972" y="-138.702"/>
      <point x="280.37239999999997" y="-153.07"/>
      <point x="302.5224" y="-153.07" type="curve" smooth="yes"/>
      <point x="319.6504" y="-153.07"/>
      <point x="331.0304" y="-147.346"/>
      <point x="333.7452" y="-132.852" type="curve"/>
      <point x="330.3616" y="-135.392"/>
      <point x="321.448" y="-138.794"/>
      <point x="323.19320000000005" y="-139.932" type="curve"/>
      <point x="322.19320000000005" y="-173.886"/>
      <point x="292.1664" y="-216.61"/>
      <point x="234.7668" y="-248.38" type="curve"/>
    </contour>
  </outline>
</glyph>
<glyph name="f_f_b" format="2">
  <advance width="1493.928"/>
  <outline>
    <contour>
      <point x="1398.5468" y="257.0" type="curve" smooth="yes"/>
      <point x="1398.5468" y="115.736"/>
      <point x="1323.102" y="21.242"/>
      <point x="1181.4636" y="21.242" type="curve" smooth="yes"/>
      <point x="1079.2928" y="21.242"/>
      <point x="1002.216" y="85.46"/>
      <point x="952.6472" y="183.552" type="curve"/>
      <point x="931.58" y="162.506" type="line"/>
      <point x="992.9124" y="51.678"/>
      <point x="1065.4464" y="-10.0"/>
      <point x="1185.0064000000002" y="-10.0" type="curve" smooth="yes"/>
      <point x="1340.3844" y="-10.0"/>
      <point x="1442.7336" y="99.0"/>
      <point x="1442.7336" y="257.0" type="curve" smooth="yes"/>
      <point x="1442.7336" y="414.0"/>
      <point x="1344.9272" y="518.0"/>
      <point x="1194.3864" y="518.0" type="curve" smooth="yes"/>
      <point x="1065.9496" y="518.0"/>
      <point x="993.1672" y="449.414"/>
      <point x="921.0408" y="337.632" type="curve"/>
      <point x="937.3996" y="310.81600000000003" type="line"/>
      <point x="1002.1332" y="415.632"/>
      <point x="1079.1272" y="486.758"/>
      <point x="1186.9236" y="486.758" type="curve" smooth="yes"/>
      <point x="1325.2676000000001" y="486.758"/>
      <point x="1398.5468" y="398.218"/>
    </contour>
    <contour>
      <point x="40.1888" y="508.0" type="line"/>
      <point x="40.1888" y="479.62" type="line"/>
      <point x="516.222" y="479.62" type="line"/>
      <point x="516.222" y="508.0" type="line"/>
    </contour>
    <contour>
      <point x="419.0124" y="508.0" type="line"/>
      <point x="419.0124" y="479.62" type="line"/>
      <point x="769.5432000000001" y="479.62" type="line"/>
      <point x="769.5432000000001" y="508.0" type="line"/>
    </contour>
    <contour>
      <point x="959.2884" y="735.0" type="line"/>
      <point x="856.8152" y="735.0" type="line"/>
      <point x="918.3132" y="702.356" type="line"/>
      <point x="918.3132" y="-3.0" type="line"/>
      <point x="943.0188" y="-3.0" type="line"/>
      <point x="960.4476" y="125.08" type="line"/>
      <point x="959.2884" y="140.08" type="line"/>
    </contour>
    <contour>
      <point x="161.2088" y="63.827999999999996" type="line" smooth="yes"/>
      <point x="161.2088" y="34.827999999999996"/>
      <point x="122.6888" y="27.828"/>
      <point x="58.948800000000006" y="27.828" type="curve" smooth="yes"/>
      <point x="46.1088" y="27.828" type="line"/>
      <point x="46.1088" y="0.0" type="line"/>
      <point x="329.93640000000005" y="0.0" type="line"/>
      <point x="329.93640000000005" y="27.828" type="line"/>
      <point x="314.02" y="27.828" type="line" smooth="yes"/>
      <point x="250.36919999999998" y="27.828"/>
      <point x="202.184" y="30.828"/>
      <point x="202.184" y="37.827999999999996" type="curve"/>
      <point x="202.184" y="576.08" type="line" smooth="yes"/>
      <point x="202.184" y="675.218"/>
      <point x="245.9156" y="708.712"/>
      <point x="320.0292" y="708.712" type="curve" smooth="yes"/>
      <point x="357.42040000000003" y="708.712"/>
      <point x="387.5604" y="699.712"/>
      <point x="412.406" y="691.712" type="curve"/>
      <point x="412.406" y="727.046" type="line"/>
      <point x="391.0204" y="733.046"/>
      <point x="357.5032" y="737.046"/>
      <point x="322.6548" y="737.046" type="curve" smooth="yes"/>
      <point x="227.3084" y="737.046"/>
      <point x="161.2088" y="690.2760000000001"/>
      <point x="161.2088" y="576.08" type="curve" smooth="yes"/>
    </contour>
    <contour>
      <point x="707.104" y="0.0" type="line"/>
      <point x="707.104" y="27.828" type="line"/>
      <point x="691.7212000000001" y="27.828" type="line" smooth="yes"/>
      <point x="628.3188" y="27.828"/>
      <point x="580.4648" y="30.828"/>
      <point x="580.4648" y="37.827999999999996" type="curve" smooth="yes"/>
      <point x="580.4648" y="594.85" type="line" smooth="yes"/>
      <point x="580.4648" y="693.9879999999999"/>
      <point x="636.2848" y="720.804"/>
      <point x="750.3628000000001" y="720.804" type="curve" smooth="yes"/>
      <point x="818.3604" y="720.804"/>
      <point x="886.5540000000001" y="705.712"/>
      <point x="941.8708" y="670.7" type="curve"/>
      <point x="950.2048" y="710.448" type="line"/>
      <point x="907.2248000000001" y="727.184"/>
      <point x="843.4848" y="752.0"/>
      <point x="750.1144" y="752.0" type="curve" smooth="yes"/>
      <point x="617.5120000000001" y="752.0"/>
      <point x="539.4896" y="709.046"/>
      <point x="539.4896" y="594.85" type="curve"/>
      <point x="539.4896" y="37.827999999999996" type="line"/>
      <point x="539.4896" y="30.828"/>
      <point x="485.88759999999996" y="27.828"/>
      <point x="443.48080000000004" y="27.828" type="curve" smooth="yes"/>
      <point x="424.3896" y="27.828" type="line"/>
      <point x="424.3896" y="0.0" type="line"/>
    </contour>
  </outline>
</glyph>
<glyph name="f_f_l.alt" format="2">
  <advance width="1099.5128"/>
  <outline>
    <contour>
      <point x="40.1888" y="508.0" type="line"/>
      <point x="40.1888" y="479.62" type="line"/>
      <point x="516.222" y="479.62" type="line"/>
      <point x="516.222" y="508.0" type="line"/>
    </contour>
    <contour>
      <point x="419.0124" y="508.0" type="line"/>
      <point x="419.0124" y="479.62" type="line"/>
      <point x="769.5432000000001" y="479.62" type="line"/>
      <point x="769.5432000000001" y="508.0" type="line"/>
    </contour>
    <contour>
      <point x="707.104" y="0.0" type="line"/>
      <point x="707.104" y="27.828" type="line"/>
      <point x="691.7212000000001" y="27.828" type="line" smooth="yes"/>
      <point x="628.3188" y="27.828"/>
      <point x="580.4648" y="30.828"/>
      <point x="580.4648" y="37.827999999999996" type="curve" smooth="yes"/>
      <point x="580.4648" y="594.85" type="line" smooth="yes"/>
      <point x="580.4648" y="693.9879999999999"/>
      <point x="636.2848" y="720.804"/>
      <point x="750.9056" y="720.804" type="curve" smooth="yes"/>
      <point x="818.3604" y="720.804"/>
      <point x="886.5540000000001" y="705.712"/>
      <point x="941.8708" y="670.7" type="curve"/>
      <point x="950.2048" y="710.448" type="line"/>
      <point x="907.2248000000001" y="727.184"/>
      <point x="843.4848" y="752.0"/>
      <point x="750.6572" y="752.0" type="curve" smooth="yes"/>
      <point x="617.5120000000001" y="752.0"/>
      <point x="539.4896" y="709.046"/>
      <point x="539.4896" y="594.85" type="curve"/>
      <point x="539.4896" y="37.827999999999996" type="line" smooth="yes"/>
      <point x="539.4896" y="30.828"/>
      <point x="491.30440000000004" y="27.828"/>
      <point x="428.31600000000003" y="27.828" type="curve" smooth="yes"/>
      <point x="424.3896" y="27.828" type="line"/>
      <point x="424.3896" y="0.0" type="line"/>
    </contour>
    <contour>
      <point x="1056.6284" y="0.0" type="line"/>
      <point x="1056.6284" y="27.828" type="line"/>
      <point x="1054.1684" y="27.828" type="line" smooth="yes"/>
      <point x="998.2656000000001" y="27.828"/>
      <point x="959.2884" y="34.827999999999996"/>
      <point x="959.2884" y="63.827999999999996" type="curve" smooth="yes"/>
      <point x="959.2884" y="735.0" type="line"/>
      <point x="856.2356" y="735.0" type="line"/>
      <point x="918.3132" y="702.678" type="line"/>
      <point x="918.3132" y="37.827999999999996" type="line" smooth="yes"/>
      <point x="918.3132" y="30.828"/>
      <point x="865.9531999999999" y="27.828"/>
      <point x="833.3532" y="27.828" type="curve" smooth="yes"/>
      <point x="820.5132000000001" y="27.828" type="line"/>
      <point x="820.5132000000001" y="0.0" type="line"/>
    </contour>
    <contour>
      <point x="202.184" y="37.827999999999996" type="curve" smooth="yes"/>
      <point x="202.184" y="558.586" type="line" smooth="yes"/>
      <point x="202.184" y="669.482"/>
      <point x="290.824" y="700.804"/>
      <point x="392.014" y="700.804" type="curve" smooth="yes"/>
      <point x="465.4348" y="700.804"/>
      <point x="529.0856" y="682.62"/>
      <point x="569.1852" y="635.62" type="curve"/>
      <point x="575.1944" y="677.436"/>
      <point x="561.5504000000001" y="680.506"/>
      <point x="539.4896" y="690.9879999999999" type="curve"/>
      <point x="539.4896" y="567.85" type="line"/>
      <point x="578.336" y="617.85" type="line"/>
      <point x="578.336" y="680.586" type="line"/>
      <point x="546.6992" y="706.586"/>
      <point x="484.456" y="732.0"/>
      <point x="392.014" y="732.0" type="curve" smooth="yes"/>
      <point x="261.1744" y="732.0"/>
      <point x="161.2088" y="686.08"/>
      <point x="161.2088" y="558.586" type="curve" smooth="yes"/>
      <point x="161.2088" y="63.827999999999996" type="line"/>
      <point x="161.2088" y="34.827999999999996"/>
      <point x="122.6888" y="27.828"/>
      <point x="58.948800000000006" y="27.828" type="curve" smooth="yes"/>
      <point x="46.1088" y="27.828" type="line"/>
      <point x="46.1088" y="0.0" type="line"/>
      <point x="329.93640000000005" y="0.0" type="line"/>
      <point x="329.93640000000005" y="27.828" type="line"/>
      <point x="314.02" y="27.828" type="line" smooth="yes"/>
      <point x="250.36919999999998" y="27.828"/>
      <point x="202.184" y="30.828"/>
    </contour>
  </outline>
</glyph>
<glyph name="f_k" format="2">
  <advance width="1073.2532"/>
  <outline>
    <contour>
      <point x="1040.1564" y="0.0" type="line"/>
      <point x="1040.1564" y="30.69" type="line"/>
      <point x="1037.6136000000001" y="30.69" type="line"/>
      <point x="998.4248" y="30.69"/>
      <point x="965.0732" y="37.644"/>
      <point x="928.7648" y="68.69" type="curve" smooth="yes"/>
      <point x="668.5663999999999" y="291.782" type="line"/>
      <point x="670.3576" y="272.632" type="line"/>
      <point x="878.3616" y="428.31" type="line" smooth="yes"/>
      <point x="921.4244" y="461.356"/>
      <point x="957.822" y="477.31"/>
      <point x="1007.9704" y="477.31" type="curve"/>
      <point x="1010.4304" y="477.31" type="line"/>
      <point x="1010.4304" y="508.0" type="line"/>
      <point x="761.948" y="508.0" type="line"/>
      <point x="761.948" y="477.31" type="line"/>
      <point x="766.3252" y="477.31" type="line"/>
      <point x="805.2592" y="477.31"/>
      <point x="863.9964" y="474.31"/>
      <point x="863.9964" y="459.31" type="curve"/>
      <point x="628.478" y="280.632" type="line"/>
      <point x="628.478" y="275.632" type="line"/>
      <point x="905.2488000000001" y="40.69" type="line"/>
      <point x="905.2488000000001" y="33.69"/>
      <point x="854.3488" y="30.69"/>
      <point x="817.9576" y="30.69" type="curve"/>
      <point x="810.7064" y="30.69" type="line"/>
      <point x="810.7064" y="0.0" type="line"/>
    </contour>
    <contour>
      <point x="40.1888" y="508.0" type="line"/>
      <point x="40.1888" y="479.62" type="line"/>
      <point x="391.2624" y="479.62" type="line"/>
      <point x="391.2624" y="508.0" type="line"/>
    </contour>
    <contour>
      <point x="667.4248" y="0.0" type="line"/>
      <point x="667.4248" y="27.828" type="line"/>
      <point x="663.9648" y="27.828" type="line" smooth="yes"/>
      <point x="632.8248" y="27.828"/>
      <point x="580.4648" y="30.828"/>
      <point x="580.4648" y="37.827999999999996" type="curve"/>
      <point x="580.4648" y="735.0" type="line"/>
      <point x="476.9152" y="735.0" type="line"/>
      <point x="539.4896" y="702.816" type="line"/>
      <point x="539.4896" y="37.827999999999996" type="line"/>
      <point x="539.4896" y="30.828"/>
      <point x="487.1296" y="27.828"/>
      <point x="455.0724" y="27.828" type="curve" smooth="yes"/>
      <point x="442.23240000000004" y="27.828" type="line"/>
      <point x="442.23240000000004" y="0.0" type="line"/>
    </contour>
    <contour>
      <point x="202.184" y="37.827999999999996" type="curve" smooth="yes"/>
      <point x="202.184" y="594.85" type="line" smooth="yes"/>
      <point x="202.184" y="693.9879999999999"/>
      <point x="257.4612" y="720.804"/>
      <point x="372.082" y="720.804" type="curve" smooth="yes"/>
      <point x="440.0796" y="720.804"/>
      <point x="508.27320000000003" y="705.712"/>
      <point x="563.0472" y="670.7" type="curve"/>
      <point x="571.924" y="710.448" type="line"/>
      <point x="528.944" y="727.184"/>
      <point x="465.204" y="752.0"/>
      <point x="371.8336" y="752.0" type="curve" smooth="yes"/>
      <point x="238.6884" y="752.0"/>
      <point x="161.2088" y="709.046"/>
      <point x="161.2088" y="594.85" type="curve" smooth="yes"/>
      <point x="161.2088" y="63.827999999999996" type="line"/>
      <point x="161.2088" y="34.827999999999996"/>
      <point x="122.6888" y="27.828"/>
      <point x="58.948800000000006" y="27.828" type="curve" smooth="yes"/>
      <point x="46.1088" y="27.828" type="line"/>
      <point x="46.1088" y="0.0" type="line"/>
      <point x="328.2804" y="0.0" type="line"/>
      <point x="328.2804" y="27.828" type="line"/>
      <point x="313.4404" y="27.828" type="line" smooth="yes"/>
      <point x="250.03799999999998" y="27.828"/>
      <point x="202.184" y="30.828"/>
    </contour>
  </outline>
</glyph>
<glyph name="g.alt" format="2">
  <advance width="652.4496"/>
  <outline>
    <contour>
      <point x="522.9284" y="42.0" type="line"/>
      <point x="522.9284" y="-121.12599999999999"/>
      <point x="442.51120000000003" y="-190.758"/>
      <point x="303.7468" y="-190.758" type="curve" smooth="yes"/>
      <point x="206.4068" y="-190.758"/>
      <point x="133.2932" y="-160.666"/>
      <point x="90.4024" y="-106.12599999999999" type="curve"/>
      <point x="94.1872" y="-155.942"/>
      <point x="112.6988" y="-158.506"/>
      <point x="121.92600000000002" y="-158.598" type="curve"/>
      <point x="121.92600000000002" y="-68.08" type="line"/>
      <point x="69.99119999999999" y="-68.08" type="line"/>
      <point x="69.99119999999999" y="-139.954" type="line"/>
      <point x="105.9684" y="-184.954"/>
      <point x="205.6028" y="-222.0"/>
      <point x="303.7468" y="-222.0" type="curve" smooth="yes"/>
      <point x="465.13400000000007" y="-222.0"/>
      <point x="563.9036000000001" y="-128.0"/>
      <point x="563.9036000000001" y="43.0" type="curve"/>
      <point x="563.9036000000001" y="511.0" type="line"/>
      <point x="536.1952" y="511.0" type="line"/>
      <point x="526.8088" y="374.702" type="line"/>
      <point x="522.9284" y="356.978" type="line"/>
    </contour>
    <contour>
      <point x="94.83840000000001" y="250.0" type="curve" smooth="yes"/>
      <point x="94.83840000000001" y="391.356"/>
      <point x="173.36880000000002" y="486.758"/>
      <point x="313.79560000000004" y="486.758" type="curve" smooth="yes"/>
      <point x="417.0492" y="486.758"/>
      <point x="485.8748" y="422.586"/>
      <point x="529.1924" y="324.448" type="curve"/>
      <point x="550.2596" y="345.49399999999997" type="line"/>
      <point x="497.26120000000003" y="456.368"/>
      <point x="431.4384" y="518.0"/>
      <point x="310.3356" y="518.0" type="curve" smooth="yes"/>
      <point x="155.7092" y="518.0"/>
      <point x="50.6516" y="408.046"/>
      <point x="50.6516" y="250.0" type="curve" smooth="yes"/>
      <point x="50.6516" y="93.04599999999999"/>
      <point x="143.584" y="-11.0"/>
      <point x="290.9592" y="-11.0" type="curve" smooth="yes"/>
      <point x="416.2276" y="-11.0"/>
      <point x="488.424" y="58.54"/>
      <point x="560.6332" y="169.368" type="curve"/>
      <point x="544.44" y="196.138" type="line"/>
      <point x="479.45799999999997" y="92.368"/>
      <point x="403.1328" y="20.242"/>
      <point x="297.87919999999997" y="20.242" type="curve" smooth="yes"/>
      <point x="163.078" y="20.242"/>
      <point x="94.83840000000001" y="108.87400000000001"/>
    </contour>
  </outline>
</glyph>
<glyph name="lira.alt" format="2">
  <advance width="650.1600000000001"/>
  <outline>
    <contour>
      <point x="595.1376" y="0.0" type="line"/>
      <point x="595.1376" y="169.472" type="line"/>
      <point x="567.0152" y="169.472" type="line"/>
      <point x="556.6351999999999" y="74.932" type="line" smooth="yes"/>
      <point x="553.258" y="38.932"/>
      <point x="511.11240000000004" y="31.932000000000002"/>
      <point x="411.39520000000005" y="31.932000000000002" type="curve" smooth="yes"/>
      <point x="89.66839999999999" y="31.932000000000002" type="line"/>
      <point x="102.8284" y="22.84" type="line"/>
      <point x="205.75080000000003" y="68.47200000000001"/>
      <point x="261.488" y="138.254"/>
      <point x="261.488" y="222.74800000000002" type="curve" smooth="yes"/>
      <point x="261.488" y="332.472"/>
      <point x="160.5352" y="411.046"/>
      <point x="160.5352" y="527.816" type="curve" smooth="yes"/>
      <point x="160.5352" y="630.85"/>
      <point x="243.598772093004" y="686.62"/>
      <point x="359.0636" y="686.62" type="curve" smooth="yes"/>
      <point x="448.9344" y="686.62"/>
      <point x="509.2908" y="655.7579999999999"/>
      <point x="540.5596" y="630.528" type="curve"/>
      <point x="540.6424000000001" y="640.9879999999999"/>
      <point x="526.7196" y="656.402"/>
      <point x="515.5355999999999" y="670.804" type="curve"/>
      <point x="515.5355999999999" y="574.3439999999999" type="line"/>
      <point x="566.9672" y="574.3439999999999" type="line"/>
      <point x="566.9672" y="660.862" type="line"/>
      <point x="535.3671999999999" y="683.046"/>
      <point x="468.9952" y="718.0"/>
      <point x="359.0636" y="718.0" type="curve" smooth="yes"/>
      <point x="218.09786188345038" y="718.0"/>
      <point x="116.34840000000001" y="642.77"/>
      <point x="116.34840000000001" y="527.586" type="curve" smooth="yes"/>
      <point x="116.34840000000001" y="402.368"/>
      <point x="222.48239999999998" y="313.702"/>
      <point x="222.48239999999998" y="222.058" type="curve" smooth="yes"/>
      <point x="222.48239999999998" y="125.116"/>
      <point x="158.6836" y="78.56400000000001"/>
      <point x="57.0684" y="36.748" type="curve"/>
      <point x="57.0684" y="0.0" type="line"/>
    </contour>
    <contour>
      <point x="50.5688" y="429.058" type="line"/>
      <point x="50.5688" y="398.046" type="line"/>
      <point x="460.94640000000004" y="398.046" type="line"/>
      <point x="460.94640000000004" y="429.058" type="line"/>
    </contour>
    <contour>
      <point x="50.5688" y="274.058" type="line"/>
      <point x="50.5688" y="243.046" type="line"/>
      <point x="460.94640000000004" y="243.046" type="line"/>
      <point x="460.94640000000004" y="274.058" type="line"/>
    </contour>
  </outline>
</glyph>
<glyph name="lira.proportional" format="2">
  <advance width="715.7280000000001"/>
  <outline>
    <contour>
      <point x="493.2392" y="-2.368" type="curve" smooth="yes"/>
      <point x="584.3804" y="-2.368"/>
      <point x="633.2868" y="47.38"/>
      <point x="662.2547999999999" y="128.208" type="curve"/>
      <point x="632.7184" y="142.392" type="line"/>
      <point x="606.7072000000001" y="73.978"/>
      <point x="574.8155999999999" y="39.932"/>
      <point x="501.7848" y="39.932" type="curve" smooth="yes"/>
      <point x="422.5856" y="39.932"/>
      <point x="348.2172" y="83.15"/>
      <point x="259.6316" y="151.966" type="curve"/>
      <point x="257.5792" y="154.41400000000002"/>
      <point x="258.2352" y="133.276"/>
      <point x="241.776" y="120.04599999999999" type="curve"/>
      <point x="339.0856" y="50.217999999999996"/>
      <point x="400.2764" y="-2.368"/>
    </contour>
    <contour>
      <point x="61.853199999999994" y="428.82800000000003" type="line"/>
      <point x="61.853199999999994" y="397.81600000000003" type="line"/>
      <point x="487.4608" y="397.81600000000003" type="line"/>
      <point x="487.4608" y="428.82800000000003" type="line"/>
    </contour>
    <contour>
      <point x="61.853199999999994" y="273.644" type="line"/>
      <point x="61.853199999999994" y="242.632" type="line"/>
      <point x="487.4608" y="242.632" type="line"/>
      <point x="487.4608" y="273.644" type="line"/>
    </contour>
    <contour>
      <point x="394.74" y="686.62" type="curve" smooth="yes"/>
      <point x="499.98720000000003" y="686.62"/>
      <point x="549.8044" y="650.9879999999999"/>
      <point x="574.7392" y="625.7579999999999" type="curve"/>
      <point x="579.6132" y="623.816"/>
      <point x="575.8984" y="661.172"/>
      <point x="556.2148" y="662.218" type="curve"/>
      <point x="556.2148" y="569.7579999999999" type="line"/>
      <point x="607.0208" y="569.7579999999999" type="line"/>
      <point x="607.0208" y="655.138" type="line"/>
      <point x="583.5459999999999" y="673.506"/>
      <point x="518.4224" y="718.0"/>
      <point x="394.9884" y="718.0" type="curve" smooth="yes"/>
      <point x="235.2396" y="718.0"/>
      <point x="135.3044" y="639.954"/>
      <point x="135.3044" y="524.6320000000001" type="curve" smooth="yes"/>
      <point x="135.3044" y="399.322"/>
      <point x="243.18359999999998" y="304.56399999999996"/>
      <point x="243.18359999999998" y="209.598" type="curve" smooth="yes"/>
      <point x="243.18359999999998" y="104.748"/>
      <point x="179.41320000000002" y="56.748"/>
      <point x="61.853199999999994" y="33.15" type="curve"/>
      <point x="61.853199999999994" y="1.3099999999999998" type="line"/>
      <point x="200.818" y="26.908"/>
      <point x="281.1956" y="94.05799999999999"/>
      <point x="281.1956" y="210.288" type="curve" smooth="yes"/>
      <point x="281.1956" y="323.334"/>
      <point x="179.49120000000002" y="408.092"/>
      <point x="179.49120000000002" y="524.862" type="curve" smooth="yes"/>
      <point x="179.49120000000002" y="628.126"/>
      <point x="260.2764" y="686.62"/>
    </contour>
  </outline>
</glyph>
<glyph name="nine.old" format="2">
  <advance width="650.1600000000001"/>
  <outline>
    <contour>
      <point x="110.00800000000001" y="-120.62" type="line"/>
      <point x="372.0932" y="-104.896"/>
      <point x="546.12" y="44.77"/>
      <point x="546.12" y="274.574" type="curve" smooth="yes"/>
      <point x="546.12" y="443.12600000000003"/>
      <point x="454.2096" y="526.62"/>
      <point x="318.7396" y="526.62" type="curve" smooth="yes"/>
      <point x="178.65040000000002" y="526.62"/>
      <point x="96.3288" y="438.86199999999997"/>
      <point x="96.3288" y="329.322" type="curve" smooth="yes"/>
      <point x="96.3288" y="225.012"/>
      <point x="174.31" y="147.656"/>
      <point x="302.1084" y="147.656" type="curve" smooth="yes"/>
      <point x="418.202" y="147.656"/>
      <point x="510.5264" y="222.334"/>
      <point x="562.5028" y="310.242" type="curve"/>
      <point x="575.26" y="285.86199999999997" type="line"/>
      <point x="528.5412" y="199.276"/>
      <point x="426.2876" y="116.276"/>
      <point x="299.642" y="116.276" type="curve" smooth="yes"/>
      <point x="150.114" y="116.276"/>
      <point x="52.2248" y="204.046"/>
      <point x="52.2248" y="329.322" type="curve" smooth="yes"/>
      <point x="52.2248" y="453.644"/>
      <point x="162.368" y="558.0"/>
      <point x="318.7396" y="558.0" type="curve" smooth="yes"/>
      <point x="474.2004" y="558.0"/>
      <point x="590.4724" y="454.13800000000003"/>
      <point x="590.4724" y="274.712" type="curve" smooth="yes"/>
      <point x="590.4724" y="35.632"/>
      <point x="398.59000000000003" y="-136.046"/>
      <point x="115.34840000000001" y="-152.0" type="curve"/>
    </contour>
  </outline>
</glyph>
<glyph name="plus.sub" format="2">
  <advance width="464.4"/>
  <outline>
    <contour>
      <point x="214.7648" y="226.41400000000002" type="line"/>
      <point x="214.7648" y="-66.414" type="line"/>
      <point x="247.17520000000002" y="-66.414" type="line"/>
      <point x="247.17520000000002" y="226.41400000000002" type="line"/>
    </contour>
    <contour>
      <point x="390.9552" y="95.414" type="line"/>
      <point x="73.4448" y="95.414" type="line"/>
      <point x="73.4448" y="64.586" type="line"/>
      <point x="390.9552" y="64.586" type="line"/>
    </contour>
  </outline>
</glyph>
<glyph name="ruble.proportional" format="2">
  <advance width="718.1816"/>
  <outline>
    <contour>
      <point x="76.9048" y="375.46" type="line"/>
      <point x="386.9092" y="375.46" type="line" smooth="yes"/>
      <point x="560.4200000000001" y="375.46"/>
      <point x="621.2796" y="436.18399999999997"/>
      <point x="621.2796" y="529.678" type="curve" smooth="yes"/>
      <point x="621.2796" y="624.034"/>
      <point x="558.7944" y="678.7579999999999"/>
      <point x="392.91200000000003" y="678.7579999999999" type="curve" smooth="yes"/>
      <point x="228.5632" y="678.7579999999999" type="line"/>
      <point x="228.5632" y="40.782000000000004" type="line" smooth="yes"/>
      <point x="228.5632" y="33.782000000000004"/>
      <point x="278.4632" y="30.782"/>
      <point x="317.9832" y="30.782" type="curve" smooth="yes"/>
      <point x="349.66600000000005" y="30.782" type="line"/>
      <point x="349.66600000000005" y="0.0" type="line"/>
      <point x="76.9048" y="0.0" type="line"/>
      <point x="76.9048" y="30.782" type="line"/>
      <point x="89.8276" y="30.782" type="line" smooth="yes"/>
      <point x="146.5648" y="30.782"/>
      <point x="188.0848" y="37.782000000000004"/>
      <point x="188.0848" y="66.782" type="curve" smooth="yes"/>
      <point x="188.0848" y="643.218" type="line" smooth="yes"/>
      <point x="188.0848" y="672.218"/>
      <point x="146.5648" y="679.218"/>
      <point x="89.8276" y="679.218" type="curve" smooth="yes"/>
      <point x="76.9048" y="679.218" type="line"/>
      <point x="76.9048" y="710.0" type="line"/>
      <point x="392.7464" y="710.0" type="line" smooth="yes"/>
      <point x="585.6224" y="710.0"/>
      <point x="665.1352" y="640.816"/>
      <point x="665.1352" y="530.678" type="curve" smooth="yes"/>
      <point x="665.1352" y="420.586"/>
      <point x="581.2452000000001" y="344.448"/>
      <point x="386.8264" y="344.448" type="curve" smooth="yes"/>
      <point x="76.9048" y="344.448" type="line"/>
    </contour>
    <contour>
      <point x="470.96479999999997" y="186.58599999999998" type="line"/>
      <point x="76.9048" y="186.58599999999998" type="line"/>
      <point x="76.9048" y="217.598" type="line"/>
      <point x="470.96479999999997" y="217.598" type="line"/>
    </contour>
  </outline>
</glyph>
<glyph name="rupeeIndian.proportional" format="2">
  <advance width="732.8432"/>
  <outline>
    <contour>
      <point x="90.24799999999999" y="507.644" type="line"/>
      <point x="90.24799999999999" y="476.632" type="line"/>
      <point x="666.288" y="476.632" type="line"/>
      <point x="666.288" y="507.644" type="line"/>
    </contour>
    <contour>
      <point x="122.9196" y="273.46" type="line"/>
      <point x="192.8392" y="273.46" type="line" smooth="yes"/>
      <point x="387.5716" y="273.46"/>
      <point x="501.84360000000004" y="362.414"/>
      <point x="501.84360000000004" y="496.13800000000003" type="curve" smooth="yes"/>
      <point x="501.84360000000004" y="591.77"/>
      <point x="440.0144" y="666.356"/>
      <point x="299.89680000000004" y="684.494" type="curve"/>
      <point x="278.1672" y="698.54"/>
      <point x="225.4696" y="710.31"/>
      <point x="258.4596" y="678.9879999999999" type="curve"/>
      <point x="666.288" y="678.9879999999999" type="line"/>
      <point x="666.288" y="710.0" type="line"/>
      <point x="90.24799999999999" y="710.0" type="line"/>
      <point x="90.24799999999999" y="673.9879999999999" type="line"/>
      <point x="207.0168" y="673.9879999999999" type="line" smooth="yes"/>
      <point x="375.4116" y="673.9879999999999"/>
      <point x="457.77639999999997" y="606.402"/>
      <point x="457.77639999999997" y="496.13800000000003" type="curve" smooth="yes"/>
      <point x="457.77639999999997" y="379.966"/>
      <point x="378.6232" y="304.51800000000003"/>
      <point x="195.07479999999998" y="304.51800000000003" type="curve" smooth="yes"/>
      <point x="90.24799999999999" y="304.51800000000003" type="line"/>
      <point x="90.24799999999999" y="276.82800000000003" type="line"/>
      <point x="472.5796" y="0.0" type="line"/>
      <point x="581.8248" y="0.0" type="line"/>
      <point x="581.8248" y="30.782" type="line"/>
      <point x="565.2764" y="30.782" type="line" smooth="yes"/>
      <point x="514.0516" y="30.782"/>
      <point x="484.0008" y="38.782000000000004"/>
      <point x="453.36400000000003" y="59.736000000000004" type="curve" smooth="yes"/>
      <point x="114.8468" y="296.104" type="line"/>
    </contour>
  </outline>
</glyph>
<glyph name="schwa" format="2">
  <advance width="590.7428"/>
  <outline>
    <contour>
      <point x="284.73199999999997" y="518.0" type="curve" smooth="yes"/>
      <point x="175.5456" y="518.0"/>
      <point x="99.71719999999999" y="471.724"/>
      <point x="51.946" y="405.77" type="curve"/>
      <point x="76.9764" y="381.896" type="line"/>
      <point x="114.53320000000001" y="434.574"/>
      <point x="179.8924" y="486.758"/>
      <point x="284.98040000000003" y="486.758" type="curve" smooth="yes"/>
      <point x="412.78520000000003" y="486.758"/>
      <point x="495.2024" y="403.264"/>
      <point x="495.2024" y="258.0" type="curve" smooth="yes"/>
      <point x="495.2024" y="111.782"/>
      <point x="412.1228" y="21.242"/>
      <point x="291.9528" y="21.242" type="curve" smooth="yes"/>
      <point x="164.2372" y="21.242"/>
      <point x="99.924" y="94.736"/>
      <point x="93.6728" y="241.954" type="curve"/>
      <point x="76.1548" y="224.724" type="line"/>
      <point x="516.0975999999999" y="224.724" type="line"/>
      <point x="514.5548" y="255.92" type="line"/>
      <point x="50.6516" y="255.92" type="line"/>
      <point x="52.1944" y="85.0"/>
      <point x="136.03199999999998" y="-10.0"/>
      <point x="291.9528" y="-10.0" type="curve" smooth="yes"/>
      <point x="435.65639999999996" y="-10.0"/>
      <point x="538.6376" y="99.0"/>
      <point x="538.6376" y="256.0" type="curve" smooth="yes"/>
      <point x="538.6376" y="416.046"/>
      <point x="436.3188" y="518.0"/>
    </contour>
  </outline>
</glyph>
<glyph name="seven.lin" format="2">
  <advance width="650.1600000000001"/>
  <outline>
    <contour>
      <point x="263.144" y="671.16" type="line" smooth="yes"/>
      <point x="163.344" y="671.16"/>
      <point x="122.2812" y="664.16"/>
      <point x="117.904" y="628.16" type="curve" smooth="yes"/>
      <point x="107.524" y="538.16" type="line"/>
      <point x="80.3648" y="538.16" type="line"/>
      <point x="80.3648" y="710.0" type="line"/>
      <point x="610.0604000000001" y="710.0" type="line"/>
      <point x="610.0604000000001" y="671.206" type="line"/>
      <point x="463.82679999999993" y="503.16"/>
      <point x="326.4764" y="337.528"/>
      <point x="296.5848" y="0.0" type="curve"/>
      <point x="251.64640000000003" y="0.0" type="line"/>
      <point x="284.9152" y="344.93"/>
      <point x="447.9996" y="538.208"/>
      <point x="588.0236" y="683.2520000000001" type="curve"/>
      <point x="597.1552" y="671.16" type="line"/>
    </contour>
  </outline>
</glyph>
<glyph name="six.lin" format="2">
  <advance width="650.1600000000001"/>
  <outline>
    <contour>
      <point x="513.3892" y="708.62" type="line"/>
      <point x="277.2739254058984" y="672.7588436929"/>
      <point x="103.626" y="502.678"/>
      <point x="103.626" y="287.368" type="curve" smooth="yes"/>
      <point x="103.626" y="112.414"/>
      <point x="200.3494155688712" y="21.38"/>
      <point x="337.92" y="21.38" type="curve" smooth="yes"/>
      <point x="472.2676281688928" y="21.38"/>
      <point x="554.9076" y="116.276"/>
      <point x="554.9076" y="233.816" type="curve" smooth="yes"/>
      <point x="554.9076" y="345.17199999999997"/>
      <point x="480.14191181098323" y="427.344"/>
      <point x="351.4288" y="427.344" type="curve" smooth="yes"/>
      <point x="237.6059428571192" y="427.344"/>
      <point x="141.42511527987762" y="353.765367538572"/>
      <point x="87.326" y="265.896" type="curve"/>
      <point x="74.486" y="290.23" type="line"/>
      <point x="123.33099099452161" y="376.773985980684"/>
      <point x="229.54778082188" y="458.724"/>
      <point x="353.8952" y="458.724" type="curve" smooth="yes"/>
      <point x="504.0440056337896" y="458.724"/>
      <point x="598.846" y="366.13800000000003"/>
      <point x="598.846" y="233.816" type="curve" smooth="yes"/>
      <point x="598.846" y="101.494"/>
      <point x="488.42542000000003" y="-10.0"/>
      <point x="337.92" y="-10.0" type="curve" smooth="yes"/>
      <point x="180.46700458015522" y="-10.0"/>
      <point x="59.4392" y="101.54"/>
      <point x="59.4392" y="287.368" type="curve" smooth="yes"/>
      <point x="59.4392" y="503.46"/>
      <point x="240.71488681768562" y="703.909458478116"/>
      <point x="508.0488" y="740.0" type="curve"/>
    </contour>
  </outline>
</glyph>
<glyph name="tilde.uc" format="2">
  <advance width="580.5"/>
  <anchor x="290.48" y="694.0" name="_top"/>
  <outline>
    <contour>
      <point x="361.05719999999997" y="771.678" type="curve" smooth="yes"/>
      <point x="413.42359999999996" y="771.678"/>
      <point x="439.38505984418515" y="805.597008824091"/>
      <point x="460.83320000000003" y="864.2760000000001" type="curve"/>
      <point x="430.71720000000005" y="873.736" type="line"/>
      <point x="414.0818549835298" y="831.6578682744243"/>
      <point x="398.6204" y="806.288"/>
      <point x="366.3148" y="806.288" type="curve" smooth="yes"/>
      <point x="311.8324" y="806.288"/>
      <point x="283.8148" y="876.414"/>
      <point x="201.4868" y="876.414" type="curve" smooth="yes"/>
      <point x="151.16" y="876.414"/>
      <point x="119.55709001348934" y="844.3515850999129"/>
      <point x="106.548" y="781.862" type="curve"/>
      <point x="136.664" y="771.494" type="line"/>
      <point x="147.7441408315535" y="817.2209184770625"/>
      <point x="160.96679999999998" y="841.85"/>
      <point x="197.6892" y="841.85" type="curve" smooth="yes"/>
      <point x="251.2084" y="841.85"/>
      <point x="275.60040000000004" y="771.678"/>
    </contour>
  </outline>
</glyph>
